<svg xmlns="http://www.w3.org/2000/svg" enable-background="new 0 0 1000 1000" viewBox="0 0 1000 1000" id="travel-bag"><path fill="#ededed" d="M0 0h1000v1000H0z"></path><path fill="none" stroke="#00233a" stroke-linecap="round" stroke-linejoin="round" stroke-miterlimit="10" stroke-width="8" d="M756.459 605.068h0c-33.93.234-59.297-14.744-80.39-35.604-4.076-4.201-7.937-9.714-11.506-15.847-18.102-31.107-23.037-67.158-14.747-101.517 13.613-56.424 43.323-157.482 94.924-231.385 5.43-7.777 18.008-7.777 23.437 0 51.601 73.903 81.311 174.961 94.924 231.385 8.29 34.359 3.355 70.41-14.747 101.518-3.569 6.133-7.43 11.646-11.505 15.847-21.094 20.858-46.46 35.837-80.39 35.603zM756.458 532.922l53.423-38.505M756.458 479.604l-47.509-36.819M756.458 747.501V389.459M259.681 646.046h0c24.168.184 42.237-11.584 57.262-27.972 2.903-3.301 5.653-7.632 8.195-12.451 12.894-24.44 16.409-52.764 10.504-79.758-9.696-44.33-30.859-123.727-67.614-181.79-3.868-6.11-12.827-6.11-16.694 0-36.755 58.063-57.917 137.46-67.614 181.79-5.905 26.995-2.39 55.319 10.504 79.758 2.542 4.818 5.292 9.15 8.195 12.45 15.025 16.389 33.094 28.157 57.262 27.973zM259.681 594.657l-38.053-27.427M259.681 556.679l33.841-26.227"></path><path fill="none" stroke="#00233a" stroke-linecap="round" stroke-linejoin="round" stroke-miterlimit="10" stroke-width="8" d="M313.039 622.149v15.074c0 18.829 15.264 34.093 34.093 34.093h51.191c18.829 0 34.093-15.264 34.093-34.093V535.22c0-18.829-15.264-34.093-34.093-34.093h-51.191a33.942 33.942 0 0 0-16.268 4.124M372.727 646.048l-25.322-23.35M372.727 607.324l28.036-12.667M259.681 747.501V492.469M372.727 567.531v179.97M248.975 219.444l21.698 4.883 5.929-19.645M346.509 180.972l9.743 12.428 12.082-8.143M439.132 186.829l14.913 5.192 5.765-13.381"></path><path fill="#9ba589" d="M656.024 327.779h-7.225c-4.784 0-9.334-3.935-9.925-8.808a240.235 240.235 0 0 1 0-50.084c.591-4.873 5.141-8.808 9.925-8.808h7.225c4.784 0 9.334 3.935 9.925 8.808a240.235 240.235 0 0 1 0 50.084c-.591 4.873-5.141 8.808-9.925 8.808z"></path><path fill="none" stroke="#3e3442" stroke-linecap="round" stroke-linejoin="round" stroke-miterlimit="10" stroke-width="10" d="M656.024 327.779h-7.225c-4.784 0-9.334-3.935-9.925-8.808a240.235 240.235 0 0 1 0-50.084c.591-4.873 5.141-8.808 9.925-8.808h7.225c4.784 0 9.334 3.935 9.925 8.808a240.235 240.235 0 0 1 0 50.084c-.591 4.873-5.141 8.808-9.925 8.808z"></path><path fill="#9ba589" d="M347.419 327.779h-7.225c-4.784 0-9.334-3.935-9.925-8.808a240.235 240.235 0 0 1 0-50.084c.591-4.873 5.14-8.808 9.925-8.808h7.225c4.784 0 9.334 3.935 9.925 8.808a240.235 240.235 0 0 1 0 50.084c-.591 4.873-5.14 8.808-9.925 8.808z"></path><path fill="none" stroke="#3e3442" stroke-linecap="round" stroke-linejoin="round" stroke-miterlimit="10" stroke-width="10" d="M347.419 327.779h-7.225c-4.784 0-9.334-3.935-9.925-8.808a240.235 240.235 0 0 1 0-50.084c.591-4.873 5.14-8.808 9.925-8.808h7.225c4.784 0 9.334 3.935 9.925 8.808a240.235 240.235 0 0 1 0 50.084c-.591 4.873-5.14 8.808-9.925 8.808zM359.47 689.866l-23.775-8.532c-34.287-12.305-55.633-54.385-49.614-97.805l8.279-59.715c2.668-19.246 16.192-33.319 32.021-33.319h33.089v199.371z"></path><path fill="none" stroke="#3e3442" stroke-linecap="round" stroke-linejoin="round" stroke-miterlimit="10" stroke-width="10" d="M345.597 583.057c10.258-4.474 18.103-8.457 24.111-11.939v-93.251h-43.327c-20.881 0-38.592 18.429-42.113 43.819l-8.279 59.715a122.672 122.672 0 0 0-1.051 12.117c15.484 2.098 41.253 2.365 70.659-10.461z"></path><path fill="none" stroke="#3e3442" stroke-linecap="round" stroke-linejoin="round" stroke-miterlimit="10" stroke-width="10" d="m359.47 689.866-23.775-8.532c-34.287-12.305-55.633-54.385-49.614-97.805l8.279-59.715c2.668-19.246 16.192-33.319 32.021-33.319h33.089v199.371z"></path><path fill="#f26161" d="m359.47 689.866-23.775-8.532c-34.287-12.305-55.633-54.385-49.614-97.805l8.279-59.715c2.668-19.246 16.192-33.319 32.021-33.319h33.089v199.371z"></path><path fill="#994a4a" d="m294.36 527.815-8.279 59.715a106.799 106.799 0 0 0-.913 18.917c2.064.096 4.136.161 6.217.161.001 0 0 0 0 0 19.505 0 38.823-4.111 57.409-12.218a321.387 321.387 0 0 0 10.674-4.881v-95.012H326.38c-15.828-.001-29.352 14.071-32.02 33.318z" opacity=".3"></path><path fill="none" stroke="#3e3442" stroke-linecap="round" stroke-linejoin="round" stroke-miterlimit="10" stroke-width="10" d="m359.47 689.866-23.775-8.532c-34.287-12.305-55.633-54.385-49.614-97.805l8.279-59.715c2.668-19.246 16.192-33.319 32.021-33.319h33.089v199.371z"></path><path fill="#604957" d="M345.597 583.057c10.258-4.474 18.103-8.457 24.111-11.939v-93.251h-43.327c-20.881 0-38.592 18.429-42.113 43.819l-8.279 59.715a122.672 122.672 0 0 0-1.051 12.117c15.484 2.098 41.253 2.365 70.659-10.461z"></path><path fill="#725865" d="m282.4 586.975 8.279-59.715c3.52-25.391 21.231-43.819 42.113-43.819h36.917v-5.574h-43.327c-20.881 0-38.592 18.429-42.113 43.819l-8.279 59.715a122.672 122.672 0 0 0-1.051 12.117c2.055.279 4.295.523 6.696.711.183-2.413.429-4.831.765-7.254z" opacity=".26"></path><path fill="none" stroke="#3e3442" stroke-linecap="round" stroke-linejoin="round" stroke-miterlimit="10" stroke-width="10" d="M345.597 583.057c10.258-4.474 18.103-8.457 24.111-11.939v-93.251h-43.327c-20.881 0-38.592 18.429-42.113 43.819l-8.279 59.715a122.672 122.672 0 0 0-1.051 12.117c15.484 2.098 41.253 2.365 70.659-10.461z"></path><path fill="none" stroke="#3e3442" stroke-dasharray="5 7" stroke-linecap="round" stroke-linejoin="round" stroke-miterlimit="10" stroke-width="3" d="M291.386 584.607c-1.913 0-3.819-.047-5.711-.14.069-.569.143-1.135.22-1.694l8.279-59.715c2.828-20.392 16.373-35.192 32.208-35.192h33.327v77.365c-5.242 2.792-11.309 5.693-18.108 8.659-16.305 7.112-33.201 10.717-50.215 10.717-.001 0 .001 0 0 0z"></path><path fill="none" stroke="#3e3442" stroke-linecap="round" stroke-linejoin="round" stroke-miterlimit="10" stroke-width="10" d="m638.424 689.866 23.775-8.532c34.287-12.305 55.633-54.385 49.614-97.805l-8.279-59.715c-2.668-19.246-16.192-33.319-32.021-33.319h-33.089v199.371z"></path><path fill="none" stroke="#3e3442" stroke-linecap="round" stroke-linejoin="round" stroke-miterlimit="10" stroke-width="10" d="M652.297 583.057c-10.258-4.474-18.103-8.457-24.111-11.939v-93.251h43.327c20.881 0 38.592 18.429 42.113 43.819l8.279 59.715c.562 4.056.896 8.099 1.051 12.117-15.484 2.098-41.253 2.365-70.659-10.461z"></path><path fill="none" stroke="#3e3442" stroke-linecap="round" stroke-linejoin="round" stroke-miterlimit="10" stroke-width="10" d="m638.424 689.866 23.775-8.532c34.287-12.305 55.633-54.385 49.614-97.805l-8.279-59.715c-2.668-19.246-16.192-33.319-32.021-33.319h-33.089v199.371z"></path><path fill="#f26161" d="m638.424 689.866 23.775-8.532c34.287-12.305 55.633-54.385 49.614-97.805l-8.279-59.715c-2.668-19.246-16.192-33.319-32.021-33.319h-33.089v199.371z"></path><path fill="#994a4a" d="m711.813 587.53-8.279-59.715c-2.668-19.246-16.192-33.319-32.021-33.319h-33.089v95.012a321.387 321.387 0 0 0 10.674 4.881c18.587 8.107 37.902 12.218 57.409 12.218 2.081 0 4.153-.065 6.217-.161a106.6 106.6 0 0 0-.911-18.916z" opacity=".3"></path><path fill="none" stroke="#3e3442" stroke-linecap="round" stroke-linejoin="round" stroke-miterlimit="10" stroke-width="10" d="m638.424 689.866 23.775-8.532c34.287-12.305 55.633-54.385 49.614-97.805l-8.279-59.715c-2.668-19.246-16.192-33.319-32.021-33.319h-33.089v199.371z"></path><path fill="#604957" d="M652.297 583.057c-10.258-4.474-18.103-8.457-24.111-11.939v-93.251h43.327c20.881 0 38.592 18.429 42.113 43.819l8.279 59.715c.562 4.056.896 8.099 1.051 12.117-15.484 2.098-41.253 2.365-70.659-10.461z"></path><path fill="#725865" d="M664.513 483.289c20.881 0 38.592 18.112 42.113 43.067l8.279 58.689c.388 2.748.66 5.49.846 8.222 2.594-.189 5.006-.443 7.204-.736a118.27 118.27 0 0 0-1.051-11.909l-8.279-58.689c-3.52-24.954-21.231-43.067-42.113-43.067h-43.327v4.423h36.328z" opacity=".26"></path><path fill="none" stroke="#3e3442" stroke-dasharray="5 7" stroke-linecap="round" stroke-linejoin="round" stroke-miterlimit="10" stroke-width="3" d="M706.508 584.607c-17.016 0-33.909-3.605-50.213-10.717-6.801-2.966-12.867-5.867-18.108-8.659v-77.365h33.326c15.835 0 29.381 14.801 32.208 35.193l8.278 59.714c.077.56.151 1.125.221 1.694-1.893.093-3.799.14-5.712.14z"></path><path fill="none" stroke="#3e3442" stroke-linecap="round" stroke-linejoin="round" stroke-miterlimit="10" stroke-width="10" d="M652.297 583.057c-10.258-4.474-18.103-8.457-24.111-11.939v-93.251h43.327c20.881 0 38.592 18.429 42.113 43.819l8.279 59.715c.562 4.056.896 8.099 1.051 12.117-15.484 2.098-41.253 2.365-70.659-10.461z"></path><path fill="#9ba589" d="M629.549 341.677H366.54c-26.768.189-28.383-19.209-28.108-46.076-.275-26.866 1.34-46.265 28.108-46.076h263.009c26.769-.189 28.383 19.209 28.108 46.076.275 26.867-1.339 46.265-28.108 46.076z"></path><path fill="#9ba589" d="M657.656 295.601c.021-2.097.029-4.143.016-6.144-.15 23.621-3.448 40.097-28.124 39.923H366.539c-24.678.174-27.974-16.306-28.124-39.932-.013 2.004-.005 4.052.016 6.153-.275 26.867 1.34 46.265 28.108 46.076h263.009c26.77.189 28.384-19.209 28.108-46.076.001 0 .001 0 0 0z" opacity=".25"></path><path fill="#9ba589" d="M338.432 295.601a374.657 374.657 0 0 0-.016 6.159c.151-23.613 3.454-40.081 28.124-39.908h263.009c24.674-.174 27.973 16.299 28.124 39.917.013-2.008.006-4.063-.016-6.169.275-26.867-1.339-46.265-28.108-46.076H366.54c-26.769-.188-28.383 19.211-28.108 46.077z" opacity=".31"></path><path fill="none" stroke="#3e3442" stroke-linecap="round" stroke-linejoin="round" stroke-miterlimit="10" stroke-width="10" d="M629.549 341.677H366.54c-26.768.189-28.383-19.209-28.108-46.076v0c-.275-26.866 1.34-46.265 28.108-46.076h263.009c26.769-.189 28.383 19.209 28.108 46.076 0 0 0 0 0 0 .275 26.867-1.339 46.265-28.108 46.076z"></path><path fill="none" stroke="#3e3442" stroke-linecap="round" stroke-linejoin="round" stroke-miterlimit="10" stroke-width="14" d="M584.935 246.116v67.75M414.659 246.116v67.75"></path><path fill="#f26161" d="M658.341 440.784a204.16 204.16 0 0 0-9.44-33.668C624.974 343.28 565.4 301.867 499.829 301.867h-.063c-65.571 0-125.145 41.413-149.072 105.249a204.16 204.16 0 0 0-9.44 33.668c-11.403 71.624-15.496 143.574-10.286 214.94 4.653 51.407 48.552 95.167 88.018 95.16h161.623c39.467.007 83.365-43.754 88.018-95.16 5.21-71.367 1.116-143.316-10.286-214.94z"></path><path fill="#994a4a" d="M668.627 643.523c-4.653 50.357-48.552 93.225-88.018 93.218H418.986c-39.466.007-83.366-42.86-88.018-93.218a812.843 812.843 0 0 1-2.178-51.606c-.217 22.957.474 45.884 2.178 68.749 4.653 50.358 48.552 93.225 88.018 93.218h161.623c39.467.007 83.365-42.86 88.018-93.218 1.704-22.865 2.395-45.792 2.178-68.749a812.78 812.78 0 0 1-2.178 51.606z" opacity=".3"></path><path fill="#f26161" d="M658.341 440.784a204.16 204.16 0 0 0-9.44-33.668C624.974 343.28 565.4 301.867 499.829 301.867h-.063c-65.571 0-125.145 41.413-149.072 105.249a204.16 204.16 0 0 0-9.44 33.668c-11.403 71.624-15.496 143.574-10.286 214.94 2.403 26.546 15.271 51.052 32.59 68.546-13.095-16.334-22.461-37.265-24.431-59.685-4.958-69.957-1.062-140.486 9.789-210.695a204.84 204.84 0 0 1 8.984-33.003c22.771-62.576 79.466-103.171 141.868-103.171h.06c62.402 0 119.097 40.595 141.868 103.171a204.868 204.868 0 0 1 8.984 33.003c10.852 70.21 14.747 140.739 9.789 210.695-1.97 22.419-11.337 43.351-24.432 59.685 17.319-17.494 30.188-42.001 32.591-68.547 5.209-71.366 1.115-143.315-10.287-214.939z" opacity=".39"></path><path fill="#eae6e5" d="M444.657 444.965c-11.543 0-20.901 9.358-20.901 20.901s9.358 20.901 20.901 20.901 20.901-9.358 20.901-20.901-9.358-20.901-20.901-20.901zm0 32.831c-6.589 0-11.93-5.341-11.93-11.93 0-6.589 5.341-11.93 11.93-11.93s11.93 5.341 11.93 11.93c0 6.589-5.342 11.93-11.93 11.93z"></path><path fill="none" stroke="#3e3442" stroke-linecap="round" stroke-linejoin="round" stroke-miterlimit="10" stroke-width="2" d="M444.657 444.965c-11.543 0-20.901 9.358-20.901 20.901s9.358 20.901 20.901 20.901 20.901-9.358 20.901-20.901-9.358-20.901-20.901-20.901zm0 32.831c-6.589 0-11.93-5.341-11.93-11.93 0-6.589 5.341-11.93 11.93-11.93s11.93 5.341 11.93 11.93c0 6.589-5.342 11.93-11.93 11.93z"></path><path fill="#eae6e5" d="M565.99 444.965c-11.543 0-20.901 9.358-20.901 20.901s9.358 20.901 20.901 20.901 20.901-9.358 20.901-20.901-9.357-20.901-20.901-20.901zm0 32.831c-6.589 0-11.93-5.341-11.93-11.93 0-6.589 5.341-11.93 11.93-11.93s11.93 5.341 11.93 11.93c0 6.589-5.341 11.93-11.93 11.93z"></path><path fill="#994a4a" d="M656.266 438.011c.125-.107.238-.226.361-.335a205.11 205.11 0 0 0-7.726-25.561c-23.927-63.836-83.501-105.249-149.072-105.249h-.063c-65.571 0-125.145 41.413-149.072 105.249a205.06 205.06 0 0 0-7.726 25.561c.123.109.236.228.361.335 44.378 37.984 106.931 44.855 156.469 44.855 49.537 0 112.09-6.871 156.468-44.855z" opacity=".3"></path><path fill="#994a4a" stroke="#994a4a" stroke-linecap="round" stroke-linejoin="round" stroke-miterlimit="10" stroke-width="10" d="M594.23 707.949H412.508c-12.021 0-21.766-9.745-21.766-21.766v-80.962c0-12.021 9.745-21.766 21.766-21.766H594.23c12.021 0 21.766 9.745 21.766 21.766v80.962c0 12.021-9.745 21.766-21.766 21.766z" opacity=".3"></path><path fill="none" stroke="#3e3442" stroke-linecap="round" stroke-linejoin="round" stroke-miterlimit="10" stroke-width="2" d="M565.99 444.965c-11.543 0-20.901 9.358-20.901 20.901s9.358 20.901 20.901 20.901 20.901-9.358 20.901-20.901-9.357-20.901-20.901-20.901zm0 32.831c-6.589 0-11.93-5.341-11.93-11.93 0-6.589 5.341-11.93 11.93-11.93s11.93 5.341 11.93 11.93c0 6.589-5.341 11.93-11.93 11.93z"></path><path fill="#725865" d="M594.23 697.949H412.508c-12.021 0-21.766-9.745-21.766-21.766v-80.962c0-12.021 9.745-21.766 21.766-21.766H594.23c12.021 0 21.766 9.745 21.766 21.766v80.962c0 12.021-9.745 21.766-21.766 21.766z"></path><path fill="#3e3442" stroke="#3e3442" stroke-linecap="round" stroke-linejoin="round" stroke-miterlimit="10" stroke-width="6" d="m510.097 643.542-5.996 6.155c-2.291 2.352-6.316 2.352-8.608 0l-5.996-6.155a2.411 2.411 0 0 1-.701-1.682v-75.204c0-1.397 1.24-2.53 2.77-2.53h16.461c1.53 0 2.77 1.133 2.77 2.53v75.204c0 .621-.249 1.219-.7 1.682z" opacity=".4"></path><path fill="none" stroke="#3e3442" stroke-linecap="round" stroke-linejoin="round" stroke-miterlimit="10" stroke-width="10" d="M594.23 697.949H412.508c-12.021 0-21.766-9.745-21.766-21.766v-80.962c0-12.021 9.745-21.766 21.766-21.766H594.23c12.021 0 21.766 9.745 21.766 21.766v80.962c0 12.021-9.745 21.766-21.766 21.766z"></path><path fill="none" stroke="#3e3442" stroke-dasharray="4.989 6.984" stroke-linecap="round" stroke-linejoin="round" stroke-width="3" d="M412.508 685.949c-5.385 0-9.766-4.381-9.766-9.766V595.22c0-5.385 4.381-9.766 9.766-9.766H594.23c5.385 0 9.766 4.381 9.766 9.766v80.963c0 5.385-4.381 9.766-9.766 9.766H412.508z"></path><path fill="none" stroke="#3e3442" stroke-linecap="round" stroke-linejoin="round" stroke-miterlimit="10" stroke-width="10" d="M658.341 440.784a204.16 204.16 0 0 0-9.44-33.668C624.974 343.28 565.4 301.867 499.829 301.867h-.063c-65.571 0-125.145 41.413-149.072 105.249a204.16 204.16 0 0 0-9.44 33.668c-11.403 71.624-15.496 143.574-10.286 214.94 4.653 51.407 48.552 95.167 88.018 95.16h161.623c39.467.007 83.365-43.754 88.018-95.16 5.21-71.367 1.116-143.316-10.286-214.94z"></path><path fill="#725865" d="M499.797 465.866c58.986 0 112.21-8.137 149.965-40.452 7.04-6.025 9.802-16.412 6.68-25.616l-.051-.151c-12.269-36.094-33.643-66.713-61.81-88.545-28.053-21.743-60.817-33.236-94.815-33.236-33.936 0-66.701 11.493-94.753 33.236-28.167 21.833-49.541 52.451-61.81 88.545l-.051.152c-3.122 9.204-.359 19.59 6.68 25.615 37.755 32.315 90.979 40.452 149.965 40.452z"></path><path fill="#3e3442" stroke="#3e3442" stroke-linecap="round" stroke-linejoin="round" stroke-miterlimit="10" stroke-width="6" d="m453.133 362.771-5.996 6.738a5.762 5.762 0 0 1-8.608 0l-5.995-6.738a2.77 2.77 0 0 1-.701-1.841v-82.331a2.77 2.77 0 0 1 2.77-2.77h16.461a2.77 2.77 0 0 1 2.77 2.77v82.331a2.777 2.777 0 0 1-.701 1.841zM565.466 362.771l-5.996 6.738a5.762 5.762 0 0 1-8.608 0l-5.995-6.738a2.77 2.77 0 0 1-.701-1.841v-82.331a2.77 2.77 0 0 1 2.77-2.77h16.461a2.77 2.77 0 0 1 2.77 2.77v82.331c0 .678-.25 1.334-.701 1.841z" opacity=".4"></path><path fill="#725865" d="M649.763 416.435c-37.755 32.315-90.979 40.452-149.965 40.452-58.986 0-112.211-8.137-149.966-40.453-3.964-3.393-6.571-8.168-7.536-13.336-1.548 8.295 1.327 17.001 7.536 22.315 37.755 32.316 90.979 40.453 149.966 40.453 58.986 0 112.21-8.137 149.965-40.452 6.209-5.314 9.084-14.02 7.536-22.315-.965 5.168-3.573 9.943-7.536 13.336z" opacity=".32"></path><path fill="#725865" d="m656.443 399.798-.051-.151c-12.269-36.094-33.643-66.713-61.81-88.545-28.053-21.743-60.817-33.236-94.815-33.236-33.936 0-66.701 11.493-94.753 33.236-28.167 21.833-49.541 52.451-61.81 88.545l-.051.152c-2.992 8.82-.568 18.716 5.834 24.829-3.205-5.647-4.017-12.727-1.817-19.212l.05-.148c11.955-35.169 32.78-65.001 60.225-86.274 27.333-21.185 59.258-32.383 92.323-32.383 33.126 0 65.051 11.198 92.384 32.383 27.445 21.273 48.271 51.106 60.224 86.275l.05.147c2.2 6.485 1.388 13.565-1.817 19.213 6.402-6.114 8.826-16.01 5.834-24.831z" opacity=".58"></path><path fill="none" stroke="#3e3442" stroke-linecap="round" stroke-linejoin="round" stroke-miterlimit="10" stroke-width="10" d="M499.797 465.866c58.986 0 112.21-8.137 149.965-40.452 7.04-6.025 9.802-16.412 6.68-25.616l-.051-.151c-12.269-36.094-33.643-66.713-61.81-88.545-28.053-21.743-60.817-33.236-94.815-33.236-33.936 0-66.701 11.493-94.753 33.236-28.167 21.833-49.541 52.451-61.81 88.545l-.051.152c-3.122 9.204-.359 19.59 6.68 25.615 37.755 32.315 90.979 40.452 149.965 40.452z"></path><path fill="none" stroke="#3e3442" stroke-dasharray="5 7" stroke-linecap="round" stroke-linejoin="round" stroke-miterlimit="10" stroke-width="3" d="M499.798 453.866c-67.962 0-111.807-11.587-142.164-37.569-3.38-2.894-4.663-8.093-3.119-12.644l.049-.143c11.511-33.862 31.498-62.536 57.8-82.923 25.93-20.097 56.153-30.72 87.402-30.72 31.289 0 61.534 10.623 87.464 30.721 26.304 20.388 46.291 49.062 57.8 82.922l.047.139c1.545 4.556.263 9.755-3.118 12.649-30.355 25.982-74.199 37.568-142.161 37.568z"></path><path fill="#edab7a" d="m510.097 634.068-6.658 7.482a4.875 4.875 0 0 1-7.284 0l-6.658-7.482a2.77 2.77 0 0 1-.701-1.841v-65.331a2.77 2.77 0 0 1 2.77-2.77h16.461a2.77 2.77 0 0 1 2.77 2.77v65.331a2.77 2.77 0 0 1-.7 1.841z"></path><path fill="none" stroke="#3e3442" stroke-linecap="round" stroke-linejoin="round" stroke-miterlimit="10" stroke-width="6" d="m510.097 634.068-5.996 6.738a5.762 5.762 0 0 1-8.608 0l-5.996-6.738a2.77 2.77 0 0 1-.701-1.841v-65.331a2.77 2.77 0 0 1 2.77-2.77h16.461a2.77 2.77 0 0 1 2.77 2.77v65.331a2.77 2.77 0 0 1-.7 1.841z"></path><path fill="none" stroke="#3e3442" stroke-linecap="round" stroke-linejoin="round" stroke-miterlimit="10" stroke-width="6" d="M488.797 601.602h22v13.5h-22zM499.797 602.767v12.335"></path><circle cx="499.797" cy="577.602" r="3.375" fill="#3e3442"></circle><circle cx="499.797" cy="591.602" r="3.375" fill="#3e3442"></circle><circle cx="499.797" cy="624.977" r="3.375" fill="#3e3442"></circle><path fill="#edab7a" d="m453.133 353.771-6.658 7.482a4.875 4.875 0 0 1-7.284 0l-6.658-7.482a2.77 2.77 0 0 1-.701-1.841v-82.331a2.77 2.77 0 0 1 2.77-2.77h16.461a2.77 2.77 0 0 1 2.77 2.77v82.331c0 .678-.249 1.334-.7 1.841z"></path><path fill="none" stroke="#3e3442" stroke-linecap="round" stroke-linejoin="round" stroke-miterlimit="10" stroke-width="6" d="m453.133 353.771-5.996 6.738a5.762 5.762 0 0 1-8.608 0l-5.995-6.738a2.77 2.77 0 0 1-.701-1.841v-82.331a2.77 2.77 0 0 1 2.77-2.77h16.461a2.77 2.77 0 0 1 2.77 2.77v82.331a2.777 2.777 0 0 1-.701 1.841z"></path><path fill="#edab7a" d="M431.833 321.304h22v13.5h-22z" opacity=".6"></path><path fill="none" stroke="#3e3442" stroke-linecap="round" stroke-linejoin="round" stroke-miterlimit="10" stroke-width="6" d="M431.833 321.304h22v13.5h-22zM442.833 322.469v12.335"></path><circle cx="442.833" cy="297.304" r="3.375" fill="#3e3442"></circle><circle cx="442.833" cy="311.304" r="3.375" fill="#3e3442"></circle><circle cx="442.833" cy="344.679" r="3.375" fill="#3e3442"></circle><path fill="#edab7a" d="m565.466 353.771-6.658 7.482a4.875 4.875 0 0 1-7.284 0l-6.658-7.482a2.77 2.77 0 0 1-.701-1.841v-82.331a2.77 2.77 0 0 1 2.77-2.77h16.461a2.77 2.77 0 0 1 2.77 2.77v82.331a2.766 2.766 0 0 1-.7 1.841z"></path><path fill="#edab7a" d="M544.167 321.304h22v13.5h-22z" opacity=".6"></path><path fill="none" stroke="#3e3442" stroke-linecap="round" stroke-linejoin="round" stroke-miterlimit="10" stroke-width="6" d="m565.466 353.771-5.996 6.738a5.762 5.762 0 0 1-8.608 0l-5.995-6.738a2.77 2.77 0 0 1-.701-1.841v-82.331a2.77 2.77 0 0 1 2.77-2.77h16.461a2.77 2.77 0 0 1 2.77 2.77v82.331c0 .678-.25 1.334-.701 1.841z"></path><circle cx="442.833" cy="283.304" r="3.375" fill="#3e3442"></circle><circle cx="555.167" cy="283.304" r="3.375" fill="#3e3442"></circle><circle cx="442.833" cy="270.204" r="3.375" fill="#3e3442"></circle><circle cx="555.167" cy="270.204" r="3.375" fill="#3e3442"></circle><path fill="#edab7a" d="M544.167 321.304h22v13.5h-22z" opacity=".6"></path><path fill="none" stroke="#3e3442" stroke-linecap="round" stroke-linejoin="round" stroke-miterlimit="10" stroke-width="6" d="M544.167 321.304h22v13.5h-22zM555.167 322.469v12.335"></path><circle cx="555.167" cy="297.304" r="3.375" fill="#3e3442"></circle><circle cx="555.167" cy="311.304" r="3.375" fill="#3e3442"></circle><circle cx="555.167" cy="344.679" r="3.375" fill="#3e3442"></circle><path fill="#826776" d="M520.017 439.366h-41.503a7.248 7.248 0 0 1-7.248-7.248v-49.003a7.248 7.248 0 0 1 7.248-7.248h41.503a7.248 7.248 0 0 1 7.248 7.248v49.003a7.247 7.247 0 0 1-7.248 7.248z"></path><path fill="#725865" d="M471.266 375.866h56v27.611h-56z" opacity=".32"></path><path fill="none" stroke="#3e3442" stroke-linecap="round" stroke-linejoin="round" stroke-miterlimit="10" stroke-width="6" d="M520.017 439.366h-41.503a7.248 7.248 0 0 1-7.248-7.248v-49.003a7.248 7.248 0 0 1 7.248-7.248h41.503a7.248 7.248 0 0 1 7.248 7.248v49.003a7.247 7.247 0 0 1-7.248 7.248z"></path><path fill="none" stroke="#3e3442" stroke-dasharray="3 5" stroke-linecap="round" stroke-linejoin="round" stroke-miterlimit="10" stroke-width="2" d="M478.514 433.366a1.25 1.25 0 0 1-1.249-1.249v-49.003c0-.688.56-1.249 1.249-1.249h41.503c.688 0 1.248.56 1.248 1.249v49.003a1.25 1.25 0 0 1-1.248 1.249h-41.503z"></path><path fill="#f26161" d="M466.266 354.866h66v38.333h-66z"></path><path fill="none" stroke="#3e3442" stroke-linecap="round" stroke-linejoin="round" stroke-miterlimit="10" stroke-width="6" d="M466.266 354.866h66v38.333h-66z"></path><path fill="#725865" d="M542.148 534.56h-88.207a8.185 8.185 0 1 1 0-16.37h88.207a8.185 8.185 0 0 1 8.185 8.185 8.184 8.184 0 0 1-8.185 8.185z"></path><path fill="none" stroke="#3e3442" stroke-linecap="round" stroke-linejoin="round" stroke-miterlimit="10" stroke-width="4" d="M542.148 534.56h-88.207a8.185 8.185 0 0 1-8.185-8.185h0a8.185 8.185 0 0 1 8.185-8.185h88.207a8.185 8.185 0 0 1 8.185 8.185h0a8.184 8.184 0 0 1-8.185 8.185z"></path><path fill="none" stroke="#3e3442" stroke-linejoin="round" stroke-miterlimit="10" stroke-width="6" d="M507.5 526.375h29.626M483.167 526.375h14.877M458.963 526.375h16.37"></path><path fill="#d35050" d="M488.531 350.116H510v64.75h-21.469z"></path><path fill="none" stroke="#3e3442" stroke-linecap="round" stroke-linejoin="round" stroke-miterlimit="10" stroke-width="4" d="M488.531 350.116H510v64.75h-21.469z"></path><circle cx="499.797" cy="401.962" r="3.75" fill="none" stroke="#3e3442" stroke-linecap="round" stroke-linejoin="round" stroke-miterlimit="10" stroke-width="4"></circle><circle cx="573.775" cy="404.914" r="14.714" fill="#826776"></circle><circle cx="573.775" cy="404.914" r="14.714" fill="none" stroke="#3e3442" stroke-linecap="round" stroke-linejoin="round" stroke-miterlimit="10" stroke-width="2"></circle><path fill="#8ca85e" d="m567.799 411.029 5.976-15.103 5.975 15.103z"></path><path fill="none" stroke="#3e3442" stroke-linecap="round" stroke-linejoin="round" stroke-miterlimit="10" stroke-width="2" d="m567.799 411.029 5.976-15.103 5.975 15.103z"></path><path fill="none" stroke="#3e3442" stroke-linecap="round" stroke-linejoin="round" stroke-miterlimit="10" stroke-width="10" d="M748.667 750.884H774M794 750.884h10.25M322.269 750.884H712.22M240.655 750.884h56.678"></path></svg>